<svg width="23" height="21" viewBox="0 0 23 21" fill="none" xmlns="http://www.w3.org/2000/svg">
<path d="M12.75 2.375H2.71094C2.39844 2.375 2.08594 2.6875 2.08594 3V18C2.08594 18.3516 2.39844 18.625 2.71094 18.625H11.3438C11.8125 19.3672 12.3984 19.9922 13.1016 20.5C12.9844 20.5 12.8672 20.5 12.75 20.5H2.75C1.34375 20.5 0.25 19.4062 0.25 18V3C0.25 1.63281 1.34375 0.5 2.75 0.5H12.75C14.1172 0.5 15.25 1.63281 15.25 3V8.27344C14.5469 8.46875 13.9219 8.74219 13.375 9.13281V3C13.375 2.6875 13.0625 2.375 12.75 2.375ZM3.96094 6.4375C3.96094 5.92969 4.39062 5.5 4.89844 5.5H10.5234C11.0703 5.5 11.4609 5.92969 11.4609 6.4375C11.4609 6.98438 11.0703 7.375 10.5234 7.375H4.89844C4.39062 7.375 3.96094 6.98438 3.96094 6.4375ZM10.5234 9.25C11.0703 9.25 11.4609 9.67969 11.4609 10.1875C11.4609 10.7344 11.0703 11.125 10.5234 11.125H4.89844C4.39062 11.125 3.96094 10.7344 3.96094 10.1875C3.96094 9.67969 4.39062 9.25 4.89844 9.25H10.5234ZM6.77344 13C7.32031 13 7.71094 13.4297 7.71094 13.9375C7.71094 14.4844 7.32031 14.875 6.77344 14.875H4.89844C4.39062 14.875 3.96094 14.4844 3.96094 13.9375C3.96094 13.4297 4.39062 13 4.89844 13H6.77344ZM22.75 14.875C22.75 18 20.2109 20.5 17.125 20.5C14 20.5 11.4609 18 11.4609 14.875C11.4609 11.7891 14 9.25 17.125 9.25C20.2109 9.25 22.75 11.7891 22.75 14.875ZM18.8438 13.1953L16.5 15.5781L15.3672 14.4453C15.1328 14.2109 14.7031 14.2109 14.4688 14.4453C14.2344 14.6797 14.2344 15.1094 14.4688 15.3438L16.0312 16.9062C16.2656 17.1406 16.6953 17.1406 16.9297 16.9062L19.7422 14.0938C19.9766 13.8594 19.9766 13.4297 19.7422 13.1953C19.5078 12.9609 19.0781 12.9609 18.8438 13.1953Z" fill="#3C57E0"/>
</svg>
