<svg width="16" height="19" viewBox="0 0 16 19" fill="none" xmlns="http://www.w3.org/2000/svg">
<path d="M9.125 1.875V2.50781C11.6562 2.92969 13.625 5.14453 13.625 7.78125V8.97656C13.625 10.5586 14.1523 12.1055 15.1367 13.3711L15.6641 14.0039C15.875 14.2852 15.9102 14.6367 15.7695 14.918C15.6289 15.1992 15.3477 15.375 15.0312 15.375H0.96875C0.617188 15.375 0.335938 15.1992 0.195312 14.918C0.0546875 14.6367 0.0898438 14.2852 0.300781 14.0039L0.828125 13.3711C1.8125 12.1055 2.375 10.5586 2.375 8.97656V7.78125C2.375 5.14453 4.30859 2.92969 6.875 2.50781V1.875C6.875 1.27734 7.36719 0.75 8 0.75C8.59766 0.75 9.125 1.27734 9.125 1.875ZM7.71875 4.125C5.67969 4.125 4.0625 5.77734 4.0625 7.78125V8.97656C4.0625 10.6641 3.57031 12.2812 2.65625 13.6875H13.3086C12.3945 12.2812 11.9375 10.6641 11.9375 8.97656V7.78125C11.9375 5.77734 10.2852 4.125 8.28125 4.125H7.71875ZM10.25 16.5C10.25 17.0977 10.0039 17.6953 9.58203 18.1172C9.16016 18.5391 8.5625 18.75 8 18.75C7.40234 18.75 6.80469 18.5391 6.38281 18.1172C5.96094 17.6953 5.75 17.0977 5.75 16.5H10.25Z" fill="#575757"/>
</svg>
