<svg width="23" height="21" viewBox="0 0 23 21" fill="none" xmlns="http://www.w3.org/2000/svg">
<path d="M21.7734 12.7266C22.3984 13.2344 22.75 14.0156 22.7109 14.7969C22.7109 15.6172 22.3203 16.3594 21.6562 16.8281L17.75 19.7969C17.125 20.2656 16.3438 20.5 15.5625 20.5H1.1875C0.640625 20.5 0.25 20.1094 0.25 19.5625C0.25 19.0547 0.640625 18.625 1.1875 18.6641H15.5625C15.9531 18.6641 16.3047 18.5078 16.6172 18.3125L20.5625 15.3438C20.9531 15.0312 20.9922 14.4844 20.5625 14.1328C20.2891 13.8984 19.7812 13.8984 19.4688 14.1328L17.0859 15.9297C16.7734 16.1641 16.4219 16.2812 16.0312 16.2812H10.7578C10.4844 16.2812 10.25 16.0469 10.25 15.7734C10.25 15.4609 10.4844 15.2266 10.7578 15.2266H13.1016C14.2734 15.2266 14.2344 13.6641 13.1406 13.6641H7.51562C6.8125 13.6641 6.14844 13.8594 5.60156 14.2891L4 15.5391H1.1875C0.640625 15.5391 0.25 15.1094 0.25 14.6016C0.25 14.0547 0.640625 13.6641 1.1875 13.6641H3.33594L4.46875 12.8047C5.32812 12.1406 6.42188 11.75 7.51562 11.75H13.1406C14.6641 11.75 15.8359 12.9219 15.7969 14.4062H15.9531L18.2969 12.6484C19.0391 12.0625 20.5234 11.6719 21.7734 12.7266ZM11.1484 7.33594C11.8125 7.45312 12.3594 7.33594 12.3984 7.0625C12.4375 6.86719 12.4766 6.78906 11.2266 6.4375L10.9531 6.35938C10.25 6.125 8.375 5.57812 8.6875 3.66406C8.88281 2.72656 9.54688 2.10156 10.5625 1.86719V1.4375C10.5625 0.929688 10.9531 0.5 11.5 0.5C12.0078 0.5 12.4375 0.929688 12.4375 1.4375V1.90625C12.6328 1.94531 12.9062 2.02344 13.1797 2.10156C13.6875 2.29688 13.9219 2.80469 13.7656 3.3125C13.6094 3.82031 13.0625 4.05469 12.5938 3.89844C12.2422 3.78125 12.0078 3.70312 11.8125 3.66406C11.1484 3.58594 10.6016 3.70312 10.5625 3.97656C10.5234 4.13281 10.5234 4.25 11.5 4.5625L11.6562 4.60156C12.6719 4.91406 14.5078 5.42188 14.1953 7.375C14.0781 8.3125 13.375 8.9375 12.3984 9.17188V9.5625C12.3984 10.1094 11.9688 10.5 11.4609 10.5C10.9141 10.5 10.5234 10.1094 10.5234 9.5625V9.13281C10.1328 9.05469 9.78125 8.9375 9.42969 8.82031L9.27344 8.74219C8.80469 8.58594 8.53125 8.03906 8.72656 7.53125C8.88281 7.0625 9.42969 6.78906 9.9375 6.98438L10.0938 7.0625C10.4453 7.17969 10.8359 7.29688 11.1484 7.33594Z" fill="#3C57E0"/>
</svg>
