<svg width="18" height="17" viewBox="0 0 18 17" fill="none" xmlns="http://www.w3.org/2000/svg">
<path d="M17.9688 8.66663C17.9688 9.22913 17.5 9.66663 16.9688 9.66663H15.9688L16 14.6666C16 14.7604 16 14.8541 16 14.9166V15.4166C16 16.1354 15.4375 16.6666 14.75 16.6666H14.25C14.1875 16.6666 14.1562 16.6666 14.125 16.6666C14.0938 16.6666 14.0312 16.6666 14 16.6666H12.25C11.5312 16.6666 11 16.1354 11 15.4166V12.6666C11 12.1354 10.5312 11.6666 10 11.6666H8C7.4375 11.6666 7 12.1354 7 12.6666V15.4166C7 16.1354 6.4375 16.6666 5.75 16.6666H4C3.9375 16.6666 3.90625 16.6666 3.84375 16.6666C3.8125 16.6666 3.78125 16.6666 3.75 16.6666H3.25C2.53125 16.6666 2 16.1354 2 15.4166V11.9166C2 11.9166 2 11.8854 2 11.8541V9.66663H1C0.4375 9.66663 0 9.22913 0 8.66663C0 8.38538 0.09375 8.13538 0.3125 7.91663L8.3125 0.947876C8.53125 0.729126 8.78125 0.666626 9 0.666626C9.21875 0.666626 9.46875 0.760376 9.65625 0.916626L17.625 7.91663C17.875 8.13538 18 8.38538 17.9688 8.66663Z" fill="#3C57E0"/>
</svg>
