<svg width="20" height="17" viewBox="0 0 20 17" fill="none" xmlns="http://www.w3.org/2000/svg">
<path d="M9.96875 10.5C8.1875 10.5 6.71875 9.0625 6.75 7.25C6.75 5.46875 8.1875 4 9.96875 4C11.75 4 13.2188 5.46875 13.2188 7.25C13.2188 9.0625 11.7812 10.5 9.96875 10.5ZM11.5312 11.5C14 11.5 16 13.375 16 15.6875C16 16.1562 15.5938 16.5 15.0938 16.5H4.875C4.375 16.5 4 16.1562 4 15.6875C4 13.375 5.96875 11.5 8.4375 11.5H11.5312ZM16 5.5C14.5938 5.5 13.5 4.40625 13.5 3C13.5 1.625 14.5938 0.5 16 0.5C17.375 0.5 18.5 1.625 18.5 3C18.5 4.40625 17.375 5.5 16 5.5ZM5.71875 7.25C5.71875 8.3125 6.125 9.28125 6.78125 10H0.53125C0.21875 10 0 9.75 0 9.4375C0 7.8125 1.21875 6.5 2.75 6.5H4.65625C5.0625 6.5 5.4375 6.59375 5.78125 6.78125C5.75 6.9375 5.71875 7.09375 5.71875 7.25ZM4 5.5C2.59375 5.5 1.5 4.40625 1.5 3C1.5 1.625 2.59375 0.5 4 0.5C5.375 0.5 6.5 1.625 6.5 3C6.5 4.40625 5.375 5.5 4 5.5ZM17.2188 6.5C18.75 6.5 20 7.8125 20 9.4375C20 9.75 19.75 10 19.4375 10H13.1875C13.8438 9.28125 14.2188 8.3125 14.2188 7.25C14.2188 7.09375 14.1875 6.9375 14.1875 6.78125C14.5312 6.625 14.9062 6.5 15.3125 6.5H17.2188Z" fill="#3D3D3D"/>
</svg>
