<svg width="4" height="14" viewBox="0 0 4 14" fill="none" xmlns="http://www.w3.org/2000/svg">
<path d="M2.92672 7.92631C3.10992 7.7431 3.23469 7.50968 3.28524 7.25557C3.33578 7.00145 3.30984 6.73806 3.21069 6.49869C3.11154 6.25931 2.94363 6.05472 2.7282 5.91078C2.51278 5.76683 2.2595 5.69 2.00041 5.69C1.74131 5.69 1.48804 5.76683 1.27261 5.91078C1.05718 6.05472 0.889276 6.25931 0.790125 6.49869C0.690974 6.73806 0.665032 7.00145 0.715579 7.25557C0.766125 7.50968 0.890891 7.7431 1.0741 7.92631C1.32029 8.17101 1.6533 8.30835 2.00041 8.30835C2.34752 8.30835 2.68053 8.17101 2.92672 7.92631Z" fill="#575757"/>
<path d="M2.92672 2.92631C3.10992 2.7431 3.23469 2.50968 3.28524 2.25557C3.33578 2.00145 3.30984 1.73806 3.21069 1.49869C3.11154 1.25931 2.94363 1.05472 2.7282 0.910775C2.51278 0.766831 2.2595 0.690001 2.00041 0.690001C1.74131 0.690001 1.48804 0.766831 1.27261 0.910775C1.05718 1.05472 0.889276 1.25931 0.790125 1.49869C0.690974 1.73806 0.665032 2.00145 0.715579 2.25557C0.766125 2.50968 0.890891 2.7431 1.0741 2.92631C1.32029 3.17101 1.6533 3.30835 2.00041 3.30835C2.34752 3.30835 2.68053 3.17101 2.92672 2.92631Z" fill="#575757"/>
<path d="M2.92672 12.9263C3.10992 12.7431 3.23469 12.5097 3.28524 12.2556C3.33578 12.0015 3.30984 11.7381 3.21069 11.4987C3.11154 11.2593 2.94363 11.0547 2.7282 10.9108C2.51278 10.7668 2.2595 10.69 2.00041 10.69C1.74131 10.69 1.48804 10.7668 1.27261 10.9108C1.05718 11.0547 0.889276 11.2593 0.790125 11.4987C0.690974 11.7381 0.665032 12.0015 0.715579 12.2556C0.766125 12.5097 0.890891 12.7431 1.0741 12.9263C1.32029 13.171 1.6533 13.3084 2.00041 13.3084C2.34752 13.3084 2.68053 13.171 2.92672 12.9263Z" fill="#575757"/>
</svg>
