<svg width="21" height="21" viewBox="0 0 21 21" fill="none" xmlns="http://www.w3.org/2000/svg">
<path d="M10.6484 13.7422C10.0625 14.3281 10.1016 14.2109 9.90625 15.0312C9.75 15.4219 9.47656 15.7344 9.08594 15.8516C8.53906 16.0078 8.65625 15.9688 8.5 16.0469V20.5L6 19.25L3.5 20.5V16.0469C3.30469 15.9688 3.42188 16.0078 2.875 15.8516C2.48438 15.7344 2.17188 15.4219 2.05469 15.0312C1.85938 14.2109 1.89844 14.3281 1.3125 13.7422C1.03906 13.4297 0.921875 13 1.03906 12.6094C1.23438 11.7891 1.23438 11.9062 1.03906 11.125C0.921875 10.6953 1.03906 10.2656 1.3125 9.99219C1.89844 9.40625 1.85938 9.48438 2.05469 8.66406C2.17188 8.27344 2.48438 7.96094 2.875 7.84375C3.65625 7.64844 3.53906 7.6875 4.125 7.10156C4.4375 6.82812 4.86719 6.71094 5.25781 6.78906C6.03906 7.02344 5.92188 7.02344 6.70312 6.78906C7.09375 6.71094 7.52344 6.82812 7.83594 7.10156C8.42188 7.6875 8.30469 7.64844 9.08594 7.84375C9.47656 7.96094 9.78906 8.27344 9.90625 8.66406C10.1016 9.48438 10.0625 9.40625 10.6484 9.99219C10.9219 10.2656 11.0391 10.6953 10.9609 11.125C10.7266 11.9062 10.7266 11.7891 10.9609 12.6094C11.0391 13 10.9219 13.4297 10.6484 13.7422ZM6 14.25C7.36719 14.25 8.46094 13.1562 8.46094 11.75C8.46094 10.3828 7.36719 9.25 6 9.25C4.59375 9.25 3.5 10.3828 3.5 11.75C3.5 13.1562 4.59375 14.25 6 14.25ZM20.2578 4.17188C20.7266 4.64062 21 5.26562 20.9609 5.92969V18C20.9609 19.4062 19.8281 20.5 18.4609 20.5H9.71094L9.75 18.625H18.4609C18.7734 18.625 19.0859 18.3516 19.0859 18V6.75H16C15.2969 6.75 14.75 6.20312 14.75 5.5V2.41406H8.5C8.14844 2.41406 7.875 2.6875 7.875 3.03906L7.83594 5.69531C6.82031 5.30469 5.96094 5.69531 5.96094 5.69531V3C5.96094 1.63281 7.05469 0.5 8.46094 0.5H15.5703C16.2344 0.5 16.8594 0.773438 17.3281 1.24219L20.2578 4.17188Z" fill="#3C57E0"/>
</svg>
